<svg width="12" height="12" viewBox="0 0 12 12" fill="none" xmlns="http://www.w3.org/2000/svg">
<path d="M5.99999 1.0811C7.60207 1.0811 7.79182 1.0872 8.42449 1.11607C9.00949 1.14277 9.32718 1.24051 9.53863 1.32266C9.81867 1.4315 10.0186 1.56154 10.2285 1.77149C10.4385 1.98143 10.5685 2.18133 10.6773 2.46137C10.7595 2.67282 10.8572 2.99051 10.8839 3.57549C10.9128 4.20818 10.9189 4.39794 10.9189 6.00001C10.9189 7.60209 10.9128 7.79184 10.8839 8.42451C10.8572 9.00951 10.7595 9.3272 10.6773 9.53865C10.5685 9.81869 10.4385 10.0186 10.2285 10.2285C10.0186 10.4385 9.81867 10.5685 9.53863 10.6773C9.32718 10.7595 9.00949 10.8573 8.42449 10.884C7.79191 10.9128 7.60216 10.9189 5.99999 10.9189C4.39782 10.9189 4.20807 10.9128 3.57549 10.884C2.99049 10.8573 2.6728 10.7595 2.46137 10.6773C2.18131 10.5685 1.98141 10.4385 1.77146 10.2285C1.56152 10.0186 1.43148 9.81869 1.32266 9.53865C1.24049 9.3272 1.14274 9.00951 1.11604 8.42454C1.08718 7.79184 1.08108 7.60209 1.08108 6.00001C1.08108 4.39794 1.08718 4.20818 1.11604 3.57551C1.14274 2.99051 1.24049 2.67282 1.32266 2.46137C1.43148 2.18133 1.56152 1.98143 1.77146 1.77149C1.98141 1.56154 2.18131 1.4315 2.46137 1.32266C2.6728 1.24051 2.99049 1.14277 3.57546 1.11607C4.20816 1.0872 4.39791 1.0811 5.99999 1.0811ZM5.99999 0C4.37047 0 4.16617 0.00690694 3.52621 0.0361066C2.88755 0.0652587 2.45142 0.166672 2.06975 0.315004C1.6752 0.468338 1.34059 0.673498 1.00703 1.00706C0.673474 1.34061 0.468314 1.67522 0.31498 2.06977C0.166648 2.45144 0.0652349 2.88758 0.0360828 3.52623C0.00688312 4.16617 0 4.3705 0 6.00001C0 7.62953 0.00688312 7.83385 0.0360828 8.47379C0.0652349 9.11245 0.166648 9.54858 0.31498 9.93025C0.468314 10.3248 0.673474 10.6594 1.00703 10.993C1.34059 11.3265 1.6752 11.5317 2.06975 11.685C2.45142 11.8334 2.88755 11.9348 3.52621 11.9639C4.16617 11.9931 4.37047 12 5.99999 12C7.6295 12 7.83383 11.9931 8.47377 11.9639C9.11242 11.9348 9.54856 11.8334 9.93023 11.685C10.3248 11.5317 10.6594 11.3265 10.9929 10.993C11.3265 10.6594 11.5317 10.3248 11.685 9.93025C11.8333 9.54858 11.9347 9.11245 11.9639 8.47379C11.9931 7.83385 12 7.62953 12 6.00001C12 4.3705 11.9931 4.16617 11.9639 3.52623C11.9347 2.88758 11.8333 2.45144 11.685 2.06977C11.5317 1.67522 11.3265 1.34061 10.9929 1.00706C10.6594 0.673498 10.3248 0.468338 9.93023 0.315004C9.54856 0.166672 9.11242 0.0652587 8.47377 0.0361066C7.83383 0.00690694 7.6295 0 5.99999 0ZM5.99999 2.91892C4.29836 2.91892 2.9189 4.29838 2.9189 6.00001C2.9189 7.70164 4.29836 9.0811 5.99999 9.0811C7.70162 9.0811 9.08108 7.70164 9.08108 6.00001C9.08108 4.29838 7.70162 2.91892 5.99999 2.91892ZM5.99999 8.00002C4.89543 8.00002 3.99998 7.10457 3.99998 6.00001C3.99998 4.89545 4.89543 4 5.99999 4C7.10455 4 8 4.89545 8 6.00001C8 7.10457 7.10455 8.00002 5.99999 8.00002ZM9.9228 2.79719C9.9228 3.19484 9.60046 3.5172 9.20281 3.5172C8.80516 3.5172 8.4828 3.19484 8.4828 2.79719C8.4828 2.39954 8.80516 2.0772 9.20281 2.0772C9.60046 2.0772 9.9228 2.39954 9.9228 2.79719Z" fill="white" fill-opacity="0.6"/>
</svg>
